<?xml version="1.0" encoding="iso-8859-1"?>
<!-- Generator: Adobe Illustrator 19.0.0, SVG Export Plug-In . SVG Version: 6.00 Build 0)  -->
<svg version="1.1" id="Capa_1" xmlns="http://www.w3.org/2000/svg" xmlns:xlink="http://www.w3.org/1999/xlink" x="0px" y="0px"
	 viewBox="0 0 511.991 511.991" style="enable-background:new 0 0 511.991 511.991;" xml:space="preserve">
<g>
	<path style="fill:#ffffff;" d="M292.908,261.559L277.57,280.14c60.928,9.984,106.432,47.957,106.432,93.184
		c0,50.453-56.512,91.733-128,95.616V306.231l-21.333,25.813v136.533c-31.923-0.28-62.994-10.339-89.024-28.821l-13.568,16.427
		c0.107,0,0.149,0.213,0.256,0.299c29.814,21.502,65.578,33.2,102.336,33.472v11.371c0,5.891,4.776,10.667,10.667,10.667
		s10.667-4.776,10.667-10.667v-11.072c83.2-4.053,149.333-54.891,149.333-116.928C405.335,320.801,357.932,276.449,292.908,261.559z
		"/>
	<path style="fill:#ffffff;" d="M200.876,272.481l15.531-18.795c-62.592-9.237-109.739-47.659-109.739-93.696
		c0-50.453,56.512-91.733,128-95.616v167.211l21.333-25.835V64.673c32.065,0.26,63.27,10.399,89.365,29.035
		c0.705,0.461,1.465,0.834,2.261,1.109l12.8-15.573c-0.576-0.932-1.296-1.767-2.133-2.475
		c-29.81-21.471-65.557-33.145-102.293-33.408V31.991c0-5.891-4.776-10.667-10.667-10.667s-10.667,4.776-10.667,10.667v11.072
		c-83.2,4.053-149.333,54.869-149.333,116.928C85.335,213.324,134.252,258.316,200.876,272.481z"/>
</g>
<path style="fill:#ffffff;" d="M53.335,511.991c-5.891,0.002-10.668-4.772-10.67-10.663c-0.001-2.477,0.86-4.876,2.435-6.787
	L450.434,3.873c3.753-4.542,10.477-5.182,15.019-1.429s5.182,10.477,1.429,15.019l0,0L61.548,508.129
	C59.522,510.575,56.511,511.991,53.335,511.991z"/>
<path d="M53.335,511.991c-5.891,0.002-10.668-4.772-10.67-10.663c-0.001-2.477,0.86-4.876,2.435-6.787L450.434,3.873
	c3.753-4.542,10.477-5.182,15.019-1.429s5.182,10.477,1.429,15.019l0,0L61.548,508.129
	C59.522,510.575,56.511,511.991,53.335,511.991z"/>
<path d="M245.335,277.324c-88.235,0-160-52.629-160-117.333c0-62.08,66.133-113.067,149.333-117.077V31.991
	c0-5.891,4.776-10.667,10.667-10.667s10.667,4.776,10.667,10.667v10.88c36.836,0.348,72.641,12.209,102.4,33.92
	c4.797,3.42,5.913,10.08,2.494,14.877c-3.42,4.797-10.08,5.913-14.877,2.494c-0.193-0.138-0.382-0.282-0.566-0.433
	c-26.047-18.851-57.3-29.159-89.451-29.504v202.432C256.002,272.548,251.226,277.324,245.335,277.324z M234.668,64.268
	c-71.509,3.776-128,45.269-128,95.723s56.491,91.947,128,95.723V64.268z"/>
<path d="M245.335,511.991c-5.891,0-10.667-4.776-10.667-10.667v-10.88c-36.836-0.348-72.641-12.209-102.4-33.92
	c-4.797-3.42-5.913-10.081-2.494-14.877c3.42-4.797,10.08-5.913,14.877-2.494c0.193,0.138,0.382,0.282,0.566,0.432
	c26.047,18.851,57.3,29.159,89.451,29.504V266.657c0-5.891,4.776-10.667,10.667-10.667c88.235,0,160,52.629,160,117.333
	c0,62.08-66.133,113.067-149.333,117.077v10.923C256.002,507.215,251.226,511.991,245.335,511.991z M256.002,277.601v191.445
	c71.509-3.776,128-45.269,128-95.723S327.511,281.377,256.002,277.601z"/>
<g>
</g>
<g>
</g>
<g>
</g>
<g>
</g>
<g>
</g>
<g>
</g>
<g>
</g>
<g>
</g>
<g>
</g>
<g>
</g>
<g>
</g>
<g>
</g>
<g>
</g>
<g>
</g>
<g>
</g>
</svg>
